<?xml version="1.0" standalone="no"?>
<!DOCTYPE svg PUBLIC "-//W3C//DTD SVG 20010904//EN"
 "http://www.w3.org/TR/2001/REC-SVG-20010904/DTD/svg10.dtd">
<svg version="1.0" xmlns="http://www.w3.org/2000/svg"
 width="1427.000000pt" height="1427.000000pt" viewBox="0 0 1427.000000 1427.000000"
 preserveAspectRatio="xMidYMid meet">
<metadata>
Created by potrace 1.11, written by Peter Selinger 2001-2013
</metadata>
<g transform="translate(0.000000,1427.000000) scale(0.100000,-0.100000)"
fill="#000000" stroke="none">
<path d="M701 8808 c-10 -25 -141 -328 -171 -393 -10 -22 -36 -83 -58 -135
-22 -52 -90 -209 -151 -348 -61 -139 -111 -258 -111 -263 0 -6 43 -9 107 -7
l108 3 44 108 45 107 186 0 187 0 43 -110 43 -110 129 0 128 0 -13 33 c-14 31
-196 452 -222 512 -64 145 -176 403 -218 502 -29 68 -55 123 -60 123 -4 0 -11
-10 -16 -22z m104 -736 c-7 -7 -186 -8 -197 -1 -7 5 9 55 43 138 l53 131 53
-132 c29 -72 51 -134 48 -136z"/>
<path d="M2997 8798 c-24 -56 -403 -927 -446 -1026 -23 -51 -41 -97 -41 -102
0 -6 45 -10 106 -10 l105 0 16 38 c8 20 23 55 32 77 10 22 24 55 31 73 l12 32
188 0 187 0 43 -110 43 -110 129 0 128 0 -13 33 c-24 54 -138 319 -157 362
-16 35 -189 434 -239 550 -70 162 -96 217 -103 221 -4 3 -14 -10 -21 -28z m64
-600 c27 -68 49 -125 49 -128 0 -10 -204 -4 -207 7 -5 13 98 256 104 249 3 -3
28 -61 54 -128z"/>
<path d="M6049 8829 c-1 -2 -2 -266 -3 -586 l-1 -583 113 0 113 0 -2 323 c-2
199 1 322 6 323 6 1 47 -32 92 -73 46 -42 91 -83 101 -92 37 -32 186 -166 212
-191 14 -14 46 -43 71 -64 24 -22 82 -74 129 -117 145 -132 165 -149 173 -149
4 0 6 262 5 583 l-3 582 -110 0 -110 0 3 -333 c1 -182 -1 -332 -5 -332 -5 0
-35 26 -68 56 -33 31 -78 73 -100 93 -22 20 -96 88 -165 151 -69 63 -130 119
-136 125 -9 9 -198 182 -244 225 -55 51 -70 63 -71 59z"/>
<path d="M12800 8245 l0 -585 113 0 113 0 -3 332 -3 331 28 -24 c15 -13 52
-46 82 -74 95 -86 223 -201 264 -236 21 -19 52 -48 70 -64 17 -17 99 -91 181
-165 83 -74 153 -139 157 -145 5 -6 8 -6 9 0 3 24 4 1151 2 1160 -2 6 -46 10
-111 10 l-107 0 0 -333 c0 -182 -4 -332 -8 -332 -7 0 -103 84 -132 116 -5 6
-71 67 -145 134 -147 134 -197 180 -369 340 -62 58 -120 109 -127 113 -12 7
-14 -81 -14 -578z"/>
<path d="M5111 8779 c-207 -53 -382 -234 -425 -441 -61 -296 124 -594 421
-673 56 -15 181 -21 233 -10 14 3 34 7 45 9 86 17 207 89 282 169 257 272 186
703 -148 893 -116 67 -274 87 -408 53z m256 -217 c86 -27 175 -123 208 -222 9
-27 17 -78 17 -112 3 -195 -133 -352 -314 -364 -239 -16 -418 206 -362 449 48
205 246 313 451 249z"/>
<path d="M10302 8779 c-213 -54 -382 -231 -430 -449 -3 -14 -5 -68 -4 -120 1
-196 96 -365 268 -476 117 -75 299 -104 435 -70 162 42 313 163 382 307 145
305 9 653 -308 786 -98 41 -234 50 -343 22z m270 -224 c126 -52 213 -195 210
-345 -3 -140 -75 -254 -201 -317 -45 -22 -67 -27 -135 -27 -68 0 -91 4 -143
28 -182 83 -261 309 -172 493 25 53 101 132 149 158 80 42 206 47 292 10z"/>
<path d="M1402 8780 c-4 -3 -8 -256 -7 -562 l0 -558 111 0 111 0 -1 225 c-1
124 1 226 4 227 3 0 116 2 253 3 l247 3 0 -229 0 -229 110 0 110 0 0 123 c2
622 0 991 -5 996 -4 3 -54 6 -111 6 l-104 0 0 -227 0 -228 -250 0 -250 0 -1
23 c0 12 -1 108 -1 212 0 105 -2 197 -4 205 -3 12 -23 15 -104 15 -56 0 -104
-2 -108 -5z"/>
<path d="M3702 8780 c-4 -3 -8 -256 -7 -562 l0 -558 111 0 111 0 0 178 -1 177
74 0 75 0 119 -177 119 -178 129 0 128 0 -26 43 c-15 23 -49 75 -76 115 -26
41 -48 75 -48 77 0 2 -25 41 -55 87 -51 76 -54 84 -37 96 47 35 92 86 111 127
73 156 57 338 -39 447 -39 45 -131 101 -185 112 -16 4 -41 9 -55 12 -33 8
-438 12 -448 4z m456 -225 c77 -31 111 -150 68 -236 -34 -66 -68 -81 -197 -86
-100 -4 -109 -3 -110 14 -1 21 -1 304 0 316 2 14 199 8 239 -8z"/>
<path d="M7899 8785 c-1 0 -2 -253 -3 -563 l-1 -563 245 3 c271 5 308 11 396
71 85 57 126 141 125 259 0 95 -46 173 -134 230 l-48 31 33 27 c19 15 47 52
63 81 25 47 29 65 29 139 1 75 -2 91 -26 130 -43 74 -87 105 -193 136 -48 14
-102 17 -272 19 -117 0 -214 1 -214 0z m390 -221 c38 -8 78 -44 87 -78 16 -64
-35 -154 -88 -157 -120 -7 -168 -3 -169 11 -1 20 -1 190 0 213 1 14 11 17 70
17 38 0 82 -3 100 -6z m82 -477 c89 -43 80 -166 -13 -201 -52 -20 -215 -28
-232 -11 -7 7 -10 51 -9 121 1 60 2 111 2 113 1 2 49 1 109 -1 75 -3 118 -9
143 -21z"/>
<path d="M8892 8780 c-4 -3 -8 -256 -7 -562 l0 -558 112 0 113 0 -1 163 c0 89
0 170 1 180 0 15 9 17 73 15 l72 -3 119 -177 119 -178 129 0 128 0 -14 23 c-8
12 -66 103 -129 201 l-115 180 45 40 c105 93 149 237 118 388 -17 82 -34 115
-87 171 -49 51 -118 88 -198 107 -54 13 -462 22 -478 10z m456 -225 c90 -36
115 -177 49 -267 -30 -40 -79 -55 -189 -56 -97 -1 -98 -1 -98 24 -1 13 -1 67
-1 119 0 52 0 118 1 145 l0 50 100 0 c66 0 112 -5 138 -15z"/>
<path d="M11140 8775 c0 -4 421 -1092 437 -1127 l16 -38 59 128 c33 70 69 147
80 172 11 25 41 88 66 140 24 52 58 124 74 160 l30 65 34 -85 c19 -47 39 -94
44 -105 5 -11 41 -101 80 -200 40 -99 81 -200 92 -225 20 -44 21 -44 30 -20
206 554 408 1100 413 1118 l7 23 -118 -3 -117 -3 -18 -55 c-18 -58 -79 -254
-130 -425 -17 -55 -34 -109 -38 -119 -5 -14 -42 66 -132 290 l-125 309 -107 2
c-60 1 -107 -3 -107 -8 0 -5 18 -55 41 -112 l40 -102 -82 -207 c-46 -115 -85
-208 -88 -208 -3 0 -30 73 -60 163 -30 89 -79 233 -109 320 l-55 157 -128 -1
c-71 -1 -129 -3 -129 -4z"/>
<path d="M6 7341 c-3 -6 -1 -277 3 -293 0 -4 3208 -7 7129 -5 l7127 2 0 150 0
150 -7128 1 c-3920 1 -7129 -2 -7131 -5z"/>
<path d="M4 6520 c0 -82 2 -151 5 -151 14 -3 14237 -5 14247 -2 7 3 11 56 11
153 l0 150 -7132 0 -7132 0 1 -150z"/>
<path d="M5344 6104 c-3 -10 -10 -28 -15 -39 -5 -11 -63 -148 -128 -305 l-119
-285 30 -3 c47 -5 54 2 83 77 15 39 34 75 43 79 14 6 166 8 218 3 7 -1 26 -37
44 -81 l32 -80 50 0 c27 0 47 3 45 8 -3 4 -64 149 -137 322 -72 173 -134 317
-136 319 -2 2 -6 -5 -10 -15z m51 -286 c22 -57 38 -105 37 -108 -1 -3 -40 -5
-87 -5 -47 0 -84 2 -83 6 2 3 21 52 43 108 22 55 43 101 46 101 3 0 23 -46 44
-102z"/>
<path d="M11360 6105 c-1 -10 -1 -398 0 -553 l0 -83 42 3 43 3 -2 219 -1 220
229 -234 229 -233 1 144 c1 299 -2 493 -6 497 -9 9 -67 7 -72 -2 -3 -5 -5
-106 -4 -225 l1 -216 -230 235 c-126 129 -230 231 -230 225z"/>
<path d="M1020 6092 l-35 -3 0 -309 0 -310 42 0 43 0 0 129 c0 94 3 130 13
133 6 2 63 4 125 3 l112 0 0 36 c0 21 -6 39 -12 41 -7 2 -64 4 -125 3 l-113 0
0 97 0 98 48 1 c26 0 89 0 140 -1 58 -1 92 3 93 9 1 14 1 59 0 69 -1 7 -258
10 -331 4z"/>
<path d="M1672 6082 c-62 -22 -114 -62 -159 -121 -41 -52 -57 -107 -57 -192 1
-159 135 -297 295 -304 133 -6 238 56 305 179 24 43 28 62 28 131 0 102 -26
166 -95 230 -92 86 -210 115 -317 77z m216 -99 c28 -17 59 -48 77 -78 27 -43
30 -57 30 -124 -1 -84 -16 -123 -67 -173 -115 -112 -319 -62 -374 90 -41 116
18 252 130 303 59 26 145 19 204 -18z"/>
<path d="M2855 6090 l-59 -5 -1 -307 0 -308 208 0 c114 0 207 3 208 8 0 4 1
22 2 40 l2 32 -65 1 c-36 0 -111 0 -167 0 l-103 0 0 94 0 95 144 0 144 0 -2
41 -1 42 -142 0 -143 -1 0 94 0 94 73 1 c39 0 111 0 160 0 l87 -2 0 41 c0 31
-4 40 -17 41 -99 3 -280 3 -328 -1z"/>
<path d="M3467 6087 c-53 -13 -113 -72 -122 -120 -17 -90 27 -155 131 -197
126 -51 162 -88 150 -155 -14 -75 -120 -98 -225 -50 -57 27 -56 27 -82 -18
-12 -22 -15 -19 36 -44 199 -99 403 8 355 185 -18 70 -49 95 -197 157 -87 36
-111 100 -58 149 21 19 36 24 83 23 32 0 76 -8 99 -18 l43 -18 16 30 c8 17 14
32 12 34 -43 37 -171 59 -241 42z"/>
<path d="M3844 6092 c-30 -3 -32 -5 -31 -43 l1 -39 81 0 81 0 0 -267 -1 -268
43 -3 42 -3 0 270 0 271 84 0 83 0 -1 34 c0 19 -4 37 -7 40 -7 7 -321 13 -375
8z"/>
<path d="M7342 6085 c-78 -24 -139 -80 -180 -165 -37 -76 -38 -200 -3 -277 28
-62 93 -126 159 -155 66 -29 188 -29 255 0 51 23 54 29 32 72 l-15 28 -42 -20
c-55 -27 -149 -29 -200 -4 -80 38 -119 99 -126 196 -8 117 52 211 157 245 57
19 98 16 162 -12 l45 -20 16 39 17 39 -47 21 c-58 25 -170 31 -230 13z"/>
<path d="M7801 6091 l-35 -6 -1 -295 c0 -162 1 -301 3 -307 3 -8 21 -13 43
-13 l39 0 0 309 c0 171 -3 311 -7 313 -5 2 -24 2 -42 -1z"/>
<path d="M8120 6090 l-135 -5 0 -35 c0 -38 -5 -37 121 -39 l40 -1 -1 -252 c0
-139 1 -261 4 -270 2 -14 13 -18 42 -18 l39 0 0 270 0 270 38 1 c20 0 57 1 82
1 l46 -1 1 40 c1 21 -1 39 -5 40 -37 3 -162 3 -272 -1z"/>
<path d="M9563 6082 c-153 -55 -236 -212 -198 -378 35 -154 160 -246 322 -238
51 2 163 37 163 50 0 2 -7 19 -17 38 l-16 35 -37 -19 c-20 -10 -59 -21 -86
-23 -149 -13 -260 100 -249 252 13 168 182 267 330 191 l36 -18 14 35 c8 20
15 37 15 40 0 2 -20 13 -45 24 -66 29 -167 34 -232 11z"/>
<path d="M10172 6082 c-92 -33 -180 -122 -203 -205 -27 -100 -17 -179 33 -262
102 -171 345 -201 490 -60 94 92 122 242 66 355 -73 149 -241 223 -386 172z
m192 -83 c121 -63 170 -201 112 -324 -53 -114 -194 -162 -308 -104 -182 93
-163 364 31 436 39 15 128 10 165 -8z"/>
<path d="M11140 6090 l-35 -5 0 -222 c-1 -209 -2 -224 -21 -250 -70 -93 -209
-87 -259 12 -19 37 -20 58 -20 253 l1 212 -42 0 -43 0 1 -229 c1 -201 3 -233
20 -267 37 -78 99 -120 187 -128 101 -9 190 35 234 118 20 38 22 56 24 273 2
127 0 233 -5 235 -4 2 -23 1 -42 -2z"/>
<path d="M12247 6084 c-128 -45 -207 -166 -203 -312 6 -193 142 -317 336 -306
61 3 150 36 150 55 0 6 -7 23 -15 38 l-14 29 -43 -21 c-92 -46 -231 -13 -286
67 -67 98 -55 233 28 317 70 70 169 85 257 40 l40 -20 16 40 16 40 -47 21
c-57 26 -179 32 -235 12z"/>
<path d="M12715 6091 l-39 -6 0 -305 0 -305 42 -3 42 -3 0 315 c0 174 -1 315
-2 315 -2 -1 -21 -5 -43 -8z"/>
<path d="M2230 5780 l0 -310 39 0 c22 0 41 5 43 13 2 6 3 58 2 115 l-1 102 56
0 56 0 71 -112 71 -113 52 -3 53 -3 -31 45 c-17 24 -31 47 -31 49 0 3 -20 36
-45 74 -25 37 -45 72 -45 76 0 4 16 21 35 38 57 51 78 167 41 237 -39 76 -106
102 -257 102 l-109 0 0 -310z m247 212 c26 -14 53 -61 53 -92 0 -38 -28 -89
-59 -104 -18 -10 -55 -16 -94 -16 l-63 0 -1 114 -1 115 27 3 c39 4 113 -6 138
-20z"/>
<path d="M4630 5780 l0 -310 40 0 c31 0 40 4 41 18 1 9 1 60 2 114 l0 96 87 4
c75 3 92 7 129 31 59 39 85 98 79 182 -3 50 -10 70 -32 100 -45 58 -89 73
-227 74 l-119 2 0 -311z m270 191 c31 -37 36 -81 13 -128 -21 -44 -63 -63
-141 -63 l-58 0 -1 114 -1 115 27 3 c14 2 51 0 81 -4 44 -5 60 -13 80 -37z"/>
<path d="M5749 6089 c-1 -2 -2 -142 -3 -311 l-2 -308 43 0 43 0 0 115 0 115
54 0 54 0 54 -82 c30 -46 63 -98 73 -115 18 -30 24 -33 68 -33 l49 0 -27 46
c-15 26 -49 81 -76 122 l-48 75 37 37 c73 70 82 199 20 271 -45 51 -83 63
-215 67 -68 2 -124 2 -124 1z m242 -93 c24 -11 51 -64 51 -103 0 -40 -26 -82
-63 -100 -13 -7 -52 -13 -86 -13 l-63 0 0 114 0 115 28 3 c31 3 109 -6 133
-16z"/>
<path d="M6310 5780 l0 -310 44 0 43 0 -1 122 c-1 119 -1 124 25 152 l26 30
114 -152 114 -152 52 0 c57 0 60 2 40 22 -7 7 -64 81 -126 163 -63 83 -117
155 -122 160 -4 6 45 65 119 143 l128 132 -55 0 -54 0 -131 -136 -131 -136 1
136 0 136 -43 0 -43 0 0 -310z"/>
<path d="M8470 6085 c0 -3 21 -42 46 -87 188 -336 181 -319 179 -430 l-1 -98
43 0 43 0 0 107 0 106 44 76 c24 42 54 96 68 121 41 73 69 122 95 168 l25 42
-54 0 -53 0 -80 -155 c-44 -85 -83 -155 -86 -155 -3 0 -17 21 -30 48 -14 26
-51 95 -83 155 l-58 107 -49 0 c-27 0 -49 -2 -49 -5z"/>
<path d="M12940 5781 l0 -311 200 0 200 0 0 40 c0 25 -5 40 -12 40 -7 1 -79 1
-159 0 l-145 -1 0 268 0 268 -42 3 -42 3 0 -310z"/>
</g>
</svg>
